<?xml version="1.0" encoding="UTF-8"?><svg id="Capa_2" xmlns="http://www.w3.org/2000/svg" viewBox="0 0 372.86 326.62"><defs><style>.cls-1,.cls-2,.cls-3{fill:#fff;}.cls-4{fill:none;}.cls-4,.cls-3,.cls-5{stroke-miterlimit:22.93;}.cls-4,.cls-5{stroke:#fff;stroke-width:.22px;}.cls-2,.cls-3,.cls-5,.cls-6{fill-rule:evenodd;}.cls-3{stroke:#0071bc;stroke-width:.46px;}.cls-5,.cls-7,.cls-6{fill:#0071bc;}.cls-8{opacity:.6;}</style></defs><g id="Capa_1-2"><polygon class="cls-1" points="261.55 21.09 258.87 29 256.89 19.51 253.31 18.3 248.46 32.63 252.07 33.85 254.73 25.98 256.7 35.41 260.32 36.64 265.17 22.31 261.55 21.09"/><polygon class="cls-1" points="239.75 298.36 240.75 301.94 246.85 300.23 249.93 311.21 253.83 310.12 249.74 295.56 239.75 298.36"/><path class="cls-1" d="m228.12,303.42c-.67-1.13-1.51-1.94-2.51-2.42-.85-.41-1.87-.61-3.08-.6-.21,0-.42.01-.64.03-1.45.09-2.65.48-3.58,1.17s-1.62,1.61-2.06,2.78c-.44,1.16-.6,2.62-.49,4.38.15,2.43.86,4.28,2.13,5.55,1.16,1.17,2.71,1.74,4.64,1.71.17,0,.35,0,.52-.02,2.13-.13,3.74-.92,4.84-2.38,1.1-1.44,1.58-3.4,1.42-5.86-.11-1.76-.51-3.21-1.18-4.34Zm-3.38,7.94c-.45.7-1.09,1.07-1.9,1.13-.1,0-.21,0-.31,0-.71-.02-1.3-.31-1.78-.85-.54-.63-.85-1.65-.95-3.06-.11-1.69.06-2.88.49-3.56.43-.68,1.08-1.06,1.95-1.11.1,0,.2-.01.28,0,.72.02,1.32.32,1.79.87.53.64.85,1.71.95,3.23.1,1.54-.08,2.66-.53,3.35Z"/><path class="cls-1" d="m336.62,100.62c-.49.38-.91.87-1.26,1.48-.36.61-.57,1.21-.65,1.79-.08.59-.02,1.25.18,1.99.21.73.43,1.39.68,1.98.43,1.01.96,1.82,1.58,2.41.44.42,1.03.76,1.78,1s1.54.32,2.36.22c.82-.09,1.65-.31,2.47-.66l3.05-1.29,5.23-2.24-1.59-3.72-3.64,1.56-4.84,2.06c-.77.33-1.44.41-2.01.22-.58-.18-1.01-.59-1.28-1.23-.28-.65-.28-1.25,0-1.79.27-.54.79-.98,1.54-1.3l6.59-2.82,1.89-.81-1.59-3.72-.3.13-7.98,3.41c-.69.29-1.43.74-2.21,1.35Z"/><polygon class="cls-1" points="346.8 127.32 343.12 128.35 344.21 132.25 346.8 131.52 355.09 129.2 355.17 129.18 356.29 133.16 359.89 132.15 356.56 120.29 355.09 120.7 352.97 121.29 354.08 125.28 346.8 127.32"/><rect class="cls-1" x="227.53" y="20.04" width="15.12" height="4.06" transform="translate(171.18 249.38) rotate(-79.66)"/><polygon class="cls-1" points="312.25 72.19 312.65 71.81 323.32 61.89 320.55 58.91 312.65 66.26 309.48 69.22 312.25 72.19"/><polygon class="cls-1" points="329.57 232.98 336.76 237.13 327.12 237.21 325.21 240.52 338.3 248.09 340.22 244.77 332.99 240.6 342.68 240.52 344.57 237.25 331.47 229.68 329.57 232.98"/><path class="cls-1" d="m359.33,187.5c-.61-.51-1.29-.83-2.05-.97-.8-.14-1.53-.1-2.2.15-.31.11-.6.26-.87.46-.89.61-1.72,1.74-2.49,3.41-.47,1.02-.87,1.64-1.23,1.88-.36.23-.73.32-1.12.24-.4-.07-.73-.29-.98-.66-.25-.37-.33-.82-.22-1.4.14-.76.55-1.29,1.22-1.6.41-.18.98-.25,1.7-.21l.42-3.83c-1.52-.16-2.84.09-3.96.76-.27.15-.52.36-.74.59-.73.79-1.26,2.01-1.56,3.69-.22,1.25-.21,2.32.06,3.21.26.9.76,1.65,1.49,2.25h.01c.72.61,1.56.99,2.5,1.16.81.15,1.58.11,2.3-.11.72-.22,1.37-.67,1.95-1.34.46-.53.97-1.37,1.54-2.52.15-.31.31-.63.46-.98.3-.67.56-1.08.79-1.23.22-.16.45-.21.69-.17.33.06.58.22.76.5.18.27.23.65.15,1.11-.1.56-.33.97-.7,1.24-.36.26-.89.38-1.58.36l-.43,3.79c1.58.12,2.79-.2,3.66-.93.87-.73,1.45-1.92,1.76-3.57.24-1.34.24-2.44,0-3.28-.26-.84-.69-1.51-1.3-2.02Z"/><path class="cls-1" d="m341.69,206.19l-1.49,3.86,2.09,1.51-1.65,4.28-2.56-.28-1.53,3.95,10.24.55,5.64.3,1.59-4.14-7.22-5.88-5.11-4.16Zm5.12,10.34l-2.79-.31,1.03-2.67,1.77,1.27,2.79,2.02-2.79-.31Z"/><polygon class="cls-1" points="336.46 84.9 339.52 82.76 332.46 72.66 329.4 74.81 331.77 78.2 322.44 84.72 324.75 88.03 334.09 81.51 336.46 84.9"/><path class="cls-1" d="m362.9,152.62c-.14-2.13-.93-3.74-2.38-4.84-1.36-1.04-3.17-1.52-5.43-1.44-.14,0-.29.01-.44.02-1.76.11-3.21.52-4.34,1.19s-1.94,1.51-2.42,2.52c-.48,1-.67,2.24-.58,3.71.09,1.46.48,2.65,1.17,3.58.69.93,1.62,1.62,2.78,2.06,1.03.4,2.3.57,3.83.52.18,0,.37-.02.55-.03,2.43-.15,4.28-.86,5.56-2.13,1.27-1.27,1.83-2.99,1.7-5.16Zm-4.38,2.3c-.62.54-1.64.85-3.05.94-.13.01-.25.01-.37.02-1.49.07-2.55-.11-3.18-.51-.68-.43-1.05-1.09-1.11-1.96-.05-.85.24-1.54.87-2.07.63-.54,1.71-.85,3.23-.95h.19c1.44-.09,2.49.09,3.17.53.69.45,1.07,1.09,1.12,1.9.05.86-.23,1.55-.86,2.1Z"/><path class="cls-1" d="m284.15,42.64c.39-.73.58-1.47.58-2.23s-.23-1.5-.7-2.26c-.47-.76-1.38-1.74-2.74-2.95-.54-.49-.86-.86-.94-1.12-.07-.26-.06-.5.05-.71.15-.29.39-.49.71-.58.32-.09.69-.04,1.11.18.5.27.83.62.97,1.05.14.42.1.96-.13,1.62l3.49,1.54c.58-1.47.65-2.72.21-3.77s-1.4-1.96-2.89-2.74c-1.21-.63-2.25-.96-3.13-.97-.88-.02-1.65.19-2.32.62-.67.43-1.18.98-1.54,1.67-.55,1.05-.66,2.09-.34,3.11.31,1.03,1.14,2.16,2.51,3.39.82.75,1.3,1.33,1.42,1.74s.08.79-.1,1.14c-.19.37-.5.61-.92.74-.42.13-.89.06-1.4-.21-.69-.36-1.08-.91-1.16-1.64-.05-.45.05-1.01.31-1.69l-3.53-1.55c-.62,1.41-.77,2.74-.47,4.02.3,1.27,1.43,2.44,3.41,3.47,1.12.59,2.15.9,3.08.91.93.01,1.8-.24,2.59-.74.8-.51,1.42-1.2,1.86-2.06Z"/><path class="cls-1" d="m271.55,287.27l-2.56,1.12-3.01,1.32c-.27.12-.8.43-1.58.92-.59.37-.99.73-1.21,1.07-.36.55-.55,1.18-.59,1.88s.1,1.41.42,2.13c.39.88.92,1.52,1.58,1.93.66.4,1.47.53,2.44.39-.46.48-.76.97-.88,1.5-.19.79-.1,1.58.26,2.4.44.97,1.11,1.66,2.01,2.04.18.07.37.14.56.18.77.17,1.62.05,2.54-.36h.02s6.92-3.06,6.92-3.06l-6.09-13.84-.83.37Zm-2.24,7.88c-.11.05-.22.09-.32.13-.5.18-.9.21-1.21.1-.37-.14-.65-.41-.82-.81-.2-.44-.22-.85-.07-1.23.15-.38.54-.71,1.18-.99l.92-.41.97-.42,1.23,2.8-1.88.83Zm2.56,5.16c-.11.05-.22.09-.31.12-.42.14-.76.16-1.02.06-.33-.13-.58-.39-.76-.8-.19-.44-.22-.81-.1-1.15.12-.33.48-.62,1.06-.87l.82-.36.79-.35,1.16,2.62-1.64.73Z"/><path class="cls-1" d="m292.59,274.28l-1.92,1.36.91,2.41-3.74,2.66-1.98-1.65-3.46,2.45,10.19,7.58,2.57,1.92,3.61-2.57-4.73-15.19-1.45,1.04Zm0,10.4l-2.16-1.8,2.16-1.53.18-.13,1.97,5.26-2.15-1.8Z"/><path class="cls-1" d="m309.38,259.81l-2.97,2.77,3.81,4.1-1.62,1.51c-1.2,1.11-1.8,2.26-1.79,3.43,0,1.17.53,2.32,1.56,3.44,1.01,1.1,2.06,1.68,3.15,1.78.38.03.76,0,1.13-.1.71-.19,1.41-.61,2.11-1.26l4.93-4.59-7.04-7.57-3.26-3.51Zm4.38,12.37c-.41.38-.78.6-1.12.68-.12.03-.24.03-.36.02-.43-.05-.8-.25-1.13-.6-.33-.36-.49-.76-.47-1.21.02-.44.31-.94.89-1.47l.73-.68.34.37,1.97,2.1-.85.79Z"/><polygon class="cls-1" points="310.18 48.95 300.5 41.34 298.18 44.28 301.44 46.84 294.4 55.79 297.59 58.29 304.62 49.34 307.87 51.89 310.18 48.95"/><path class="cls-2" d="m172.08,4.37c5.19-1.22,10.42-2.19,15.69-2.9,7.25-.98,14.53-1.47,21.78-1.47,45.1,0,85.92,18.28,115.48,47.83,29.56,29.55,47.84,70.38,47.84,115.48s-18.28,85.93-47.84,115.48c-29.55,29.55-70.38,47.83-115.48,47.83-7.08,0-14.21-.47-21.31-1.41-2.29-.3-4.56-.65-6.82-1.04l.06-6.23c2.51.46,5.03.85,7.56,1.19,6.74.89,13.59,1.33,20.52,1.33,43.39,0,82.69-17.59,111.13-46.03,28.43-28.44,46.03-67.73,46.03-111.13s-17.6-82.69-46.03-111.13c-28.44-28.44-67.73-46.03-111.13-46.03-7.06,0-14.06.47-20.96,1.4-3.21.43-6.4.96-9.56,1.58-2.4-1.97-4.17-3.19-6.95-4.77Z"/><path class="cls-2" d="m176.75,213.82s-2.92-25.93-.08-37.79c2.83-11.86,2.1-49.21,1.65-51.27-.45-2.06,1.38-4.25,4.65-3.63,3.26.63,31.14-3.62,40.25-4.12s26.29,1.1,34.64.16c8.36-.94,9.87-1.5,16.4-.25,6.53,1.26,17.62,3.66,25,3.38,7.38-.28,13.99-2.39,11.44,3.61-2.56,5.99-1.2,26.83.21,40.07,1.41,13.24,4.38,31.58,3.38,42.66-1,11.08-4.44,15.78-4.44,15.78,0,0-22.06-2.54-33.47-3.32-11.42-.78-55.94-.85-73.08,1.78-17.14,2.63-22.68,2.14-22.68,2.14,0,0-5.13-2.67-3.88-9.2Z"/><path class="cls-4" d="m309.86,222.42l-6.53,10.59s3.73,4.1-8.13,2.67c-11.84-1.42-20.7-2.05-26.62-2.29-5.92-.23-39.97.16-39.97.16,0,0-15.88.92-22.52,2.29-6.63,1.36-6.21,4.4-11.57,0-5.35-4.41-11.84-12.79-11.84-12.79"/><polygon class="cls-5" points="198.72 247.94 194.76 243.94 210.44 221.43 208.89 198.72 216.6 189.28 216.61 201.45 216.6 189.28 228.25 176.18 230.88 185.53 230.62 173.83 260.62 145.81 263.05 152.29 262.35 142.9 278.25 127.66 280.73 135.74 279.7 125.93 291.39 114.25 294.24 115.03 293.35 128.54 303.25 129.82 293.69 142.36 281.62 145.39 290.08 145.97 276.44 161.81 266.08 163.03 274.59 164.22 264.4 178.48 247.73 188.12 239.47 208.29 225.33 223.18 213.46 223.75 198.72 247.94"/><path class="cls-6" d="m208.33,163.03h-.11s0-1.69,0-1.69c2.01-.46,3.58-1.63,4.71-3.53,1.38-2.29,1.92-5.45,1.62-9.49-.3-4.11-1.37-7.43-3.21-9.97-.9-1.24-1.94-2.15-3.12-2.73v-2.32c1.55.13,3.08.5,4.59,1.1,2.29.91,4.15,2.54,5.63,4.87,1.46,2.34,2.31,5.05,2.54,8.12.17,2.28-.06,4.43-.67,6.46-.61,2.03-1.59,3.77-2.92,5.21-1.35,1.45-2.72,2.44-4.1,2.97-1.39.53-3.04.86-4.96,1Zm-.11,0c-.7.05-2.93.17-6.68.35l-4.14.32-2.42.13c-.57.04-.95.04-1.09-.04-.15-.07-.23-.24-.26-.52-.04-.42.23-.65.77-.69,1.03-.07,1.77-.33,2.22-.79.46-.45.7-1.23.74-2.35s0-3.34-.13-6.66c-.13-3.32-.3-6.37-.5-9.15-.28-3.92-.62-6.31-1.01-7.19-.38-.87-1.21-1.29-2.48-1.28-.46-.01-.69-.22-.73-.61-.03-.39.16-.6.56-.63.23-.02,1.05,0,2.44.07,1.54.05,2.61.06,3.21.02l7.09-.74c.81-.06,1.6-.06,2.4.01v2.32c-1.24-.61-2.63-.86-4.19-.75-1.04.07-1.66.19-1.85.35-.2.16-.32.31-.36.46-.04.15,0,1.82.13,4.99l.32,7.55c.1,1.85.24,4.15.44,6.89.15,2.06.33,3.48.54,4.25.2.77.58,1.34,1.12,1.72.55.38,1.4.54,2.55.46.45-.03.88-.1,1.29-.19v1.69h0Z"/><path class="cls-6" d="m290.87,178.45c.15-.2.28-.5.42-.92.16-.48.36-.73.59-.75.34-.02.57.29.7.93l1.09,6.02.13.73c.03.4-.13.61-.47.64-.25.01-.44-.04-.56-.17-.12-.14-.37-.58-.74-1.32-.63-1.28-1.6-2.4-2.92-3.36-1.32-.96-2.6-1.4-3.85-1.31-1.21.09-2.19.57-2.94,1.45-.74.87-1.07,1.94-.98,3.18.07.98.51,1.85,1.32,2.6.81.74,2.31,1.39,4.5,1.95,3.44.88,5.82,2.1,7.13,3.67,1.3,1.56,2.02,3.35,2.17,5.37.15,2.06-.15,3.83-.92,5.29-.76,1.46-1.71,2.63-2.86,3.52-1.14.9-2.65,1.41-4.53,1.54-1.06.07-2.17-.02-3.34-.3-1.17-.27-2.38-.72-3.64-1.34-.22.35-.41.79-.54,1.34-.16.6-.38.91-.69.94-.31.02-.53-.37-.64-1.15l-1.12-7.98c-.06-.34-.08-.56-.08-.66-.04-.43.14-.65.51-.68.27-.02.56.33.86,1.05.93,2.17,2.1,3.94,3.51,5.33,1.41,1.39,2.99,2.01,4.72,1.88,1.47-.1,2.63-.71,3.47-1.81.82-1.1,1.2-2.31,1.1-3.63s-.6-2.39-1.5-3.24-2.48-1.6-4.71-2.26c-2.19-.66-3.81-1.32-4.89-1.98-1.09-.66-1.99-1.62-2.7-2.86-.71-1.26-1.12-2.54-1.22-3.86-.17-2.31.45-4.34,1.85-6.08,1.4-1.74,3.4-2.69,6.01-2.88,1.4-.1,3.32.27,5.74,1.09Z"/><polygon class="cls-2" points="245.06 47.24 253.19 60.9 246.45 89.1 243.74 89.65 236.87 62.05 245.06 47.24"/><path class="cls-6" d="m252.98,61.03l-8.14-13.67.43-.26,8.14,13.66.03.18-.46.07h0Zm.43-.26l.05.09-.02.09-.03-.18h0Zm-7.21,28.27l6.75-28.19.49.11-6.75,28.21-.19.18-.3-.31h0Zm.49.12l-.04.15-.16.03.19-.18h0Zm-3.01.25l2.72-.56.1.49-2.72.55-.3-.18.2-.3h0Zm.09.49l-.23.05-.06-.23.3.18h0Zm-6.66-27.9l6.85,27.6-.49.12-6.85-27.6.02-.18.47.07h0Zm-.48.12l-.03-.1.05-.09-.02.18h0Zm8.64-14.76l-8.18,14.82-.44-.25,8.18-14.82h.44s0,.24,0,.24h0Zm-.44-.24l.21-.38.22.37h-.44Z"/><polygon class="cls-2" points="199.18 90.89 212.84 82.75 241.04 89.5 241.59 92.22 213.99 99.07 199.18 90.89"/><path class="cls-6" d="m212.97,82.97l-13.67,8.14-.25-.42,13.66-8.14.18-.03.07.46h0Zm-.26-.43l.08-.05.1.02-.18.03h0Zm28.27,7.2l-28.2-6.74.11-.49,28.2,6.75.19.2-.3.29h0Zm.11-.49l.15.04.04.16-.19-.2h0Zm.25,3.02l-.55-2.72.49-.1.55,2.72-.19.29-.31-.19h0Zm.49-.1l.04.23-.23.06.18-.29h0Zm-27.9,6.66l27.6-6.85.12.48-27.6,6.85-.18-.02.06-.46h0Zm.12.48l-.1.02-.08-.05.18.02h0Zm-14.76-8.64l14.81,8.18-.23.44-14.82-8.18v-.43s.24,0,.24,0h0Zm-.25.44l-.38-.22.37-.22v.43Z"/><polygon class="cls-2" points="291.61 90.28 277.96 98.42 249.76 91.67 249.2 88.95 276.79 82.1 291.61 90.28"/><path class="cls-6" d="m277.83,98.21l13.66-8.14.26.43-13.66,8.14-.19.03-.07-.46h0Zm.26.43l-.09.05-.1-.02.18-.03h0Zm-28.27-7.2l28.2,6.75-.12.48-28.2-6.75-.18-.19.3-.29h0Zm-.12.48l-.16-.04-.03-.16.18.19h0Zm-.25-3.01l.55,2.72-.49.1-.55-2.72.18-.29.31.19h0Zm-.49.1l-.05-.23.23-.06-.18.29h0Zm27.91-6.66l-27.6,6.86-.12-.49,27.6-6.85.17.02-.05.46h0Zm-.12-.48l.09-.02.08.05-.17-.02h0Zm14.76,8.64l-14.82-8.18.23-.44,14.82,8.18v.43s-.23,0-.23,0h0Zm.24-.44l.38.21-.37.22v-.43Z"/><polygon class="cls-2" points="244.92 266.35 262.65 233.16 249.76 91.67 241.59 92.22 228.6 233.55 244.92 266.35"/><path class="cls-6" d="m262.87,233.28l-17.73,33.18-.44-.23,17.73-33.19.47.1-.03.14h0Zm.03-.14v.07s-.04.07-.04.07l.04-.14h0Zm-12.9-141.49l12.9,141.49-.5.04-12.9-141.48.23-.27.27.22h0Zm-.26-.22l.23-.02.03.24-.26-.22h0Zm-8.17.55l8.17-.55.03.5-8.16.55-.26-.27.23-.22h0Zm-.23.22l.02-.21h.21s-.23.21-.23.21h0Zm-13,141.33l12.99-141.33.5.05-12.99,141.33-.47.09-.03-.14h0Zm.03.14l-.04-.07v-.07s.04.14.04.14h0Zm16.31,32.79l-16.31-32.79.44-.22,16.31,32.8v.23h-.45Zm.45,0l-.23.43-.22-.43h.45Z"/><rect class="cls-7" x="158.06" y="178.88" width="174.4" height=".5" transform="translate(65.08 423.61) rotate(-89.75)"/><rect class="cls-7" x="271.53" y="70.2" width=".5" height="39.71" transform="translate(178.2 360.63) rotate(-89.26)"/><rect class="cls-7" x="244.99" y="47.26" width=".5" height="39.51" transform="translate(-.5 1.87) rotate(-.44)"/><rect class="cls-7" x="199.19" y="90.52" width="40.13" height=".5" transform="translate(-.48 1.16) rotate(-.3)"/><path class="cls-3" d="m240.24,87.12l10.24-.74c.65-.05,1.22.44,1.27,1.1l.34,4.6c.05.65-.45,1.23-1.1,1.27l-10.24.74c-.65.05-1.23-.45-1.27-1.1l-.33-4.6c-.05-.65.44-1.23,1.1-1.27Z"/><g class="cls-8"><path class="cls-2" d="m59.39,195.42l-8.09,8.1s2.64,1.1,2.64,6.5-2.31,8.59-2.31,15.64,5.62,10.68,5.62,10.68l7.71-8.04s-2.54-2.09-2.54-5.94,3.08-5.4,3.08-14.76c0-9.37-6.11-12.17-6.11-12.17Z"/><path class="cls-2" d="m77.5,258.48c15.35,22.72,34.55,39.74,57.56,51.08,13.64,6.72,28.63,11.45,44.95,14.2v-13.1c-8.79-1.59-17.52-4.02-26.19-7.28l26.61-30.56v-14.14l-45.36-.09-57.56-.11Zm62.77,39.97c-1.76-.98-3.5-1.98-5.22-3-11.53-6.88-21.89-14.71-29.59-23.67h59.18l-24.37,26.67Z"/><path class="cls-2" d="m77.99,193.85l36.82.31c-20.73,15.63-32.97,34.21-36.98,55.63h102.48v-13.63h-82.28c11.35-23.56,29.49-38.22,56.26-41.53h26.48v-13.63h-102.79v12.85h0Z"/><path class="cls-2" d="m157.44,2.76c-19.62,0-28.36,15.72-32.32,21.03-3.95,5.31-11.47,21.01-21.25,21.01s-13.44-8.46-13.44-15.13,4.83-13.75,7.82-17.61h-16.76s-4.3,7.12-4.3,18.25,8.61,28.05,25.52,28.05,23.72-11.52,28.64-20.04c4.92-8.51,11.72-22.11,25.82-22.11s18.75,13.86,18.25,20.78c-.52,6.92-4.49,16.68-7.57,20.63h16.33s3.93-7.89,4.1-23.19c.16-15.3-11.23-31.66-30.84-31.66Z"/></g><path class="cls-2" d="m129.71,61.27c-26.86,0-49.31,18.85-54.85,44.04-7.4-6.36-16.75-9.5-24.24-9.5h-24.08c2.55-7,5.64-13.98,9.42-20.93h48.23c5.89-5.45,11.97-9.74,18.16-13.43H26.78c-9.08,14.98-15.02,30.91-19.14,47.39l42.19-.79c9.28-.17,20.13,6.92,24.26,17.18.37,2.71.94,5.36,1.69,7.93.01.26.02.52.02.79,0,14.75-12.56,26.24-21.62,26.24H.07c-.13,4.66-.08,9.26.14,13.82h51.98c12.38,0,25.83-8.94,31.87-23.84,10.19,14.18,26.84,23.42,45.63,23.42,31.02,0,56.16-25.14,56.16-56.16s-25.14-56.16-56.15-56.16Zm0,99.7c-24.05,0-43.54-19.49-43.54-43.54s19.49-43.54,43.54-43.54,43.54,19.49,43.54,43.54-19.49,43.54-43.54,43.54Z"/></g></svg>