<?xml version="1.0" encoding="UTF-8"?><svg id="Capa_2" xmlns="http://www.w3.org/2000/svg" xmlns:xlink="http://www.w3.org/1999/xlink" viewBox="0 0 462.29 327.88"><defs><style>.cls-1{fill:#fff;}.cls-2{mask:url(#mask);}.cls-3{fill:url(#Degradado_sin_nombre);}</style><linearGradient id="Degradado_sin_nombre" x1="-1808.33" y1="-4757.85" x2="-1617.55" y2="-4757.85" gradientTransform="translate(-1984.23 -4299.69) rotate(-45.49) scale(1 -1)" gradientUnits="userSpaceOnUse"><stop offset="0" stop-color="#fff"/><stop offset="1" stop-color="#181716"/></linearGradient><mask id="mask" x="126.11" y="175.33" width="163.08" height="164.44" maskUnits="userSpaceOnUse"><g id="SVGID"><polygon class="cls-3" points="289.19 203.93 155.66 339.76 126.11 311.15 259.63 175.33 289.19 203.93"/></g></mask></defs><g id="Capa_1-2"><g class="cls-2"><path class="cls-1" d="m127.97,313.51c68.71-30.44,116.11-90.87,139.1-130.9l-1.37,4.02c-18.52,52.69-69.24,110.16-129.38,141.25l-8.35-14.37Z"/></g><path class="cls-1" d="m294.93,181.92c8.33-2.44,14.32-7.43,18.17-12.48-5.33-2.88-12.88-5.54-21.53-4.77-8.74.78-15.77,5.71-18.16,12.48,6.29,5.66,13.22,7.2,21.52,4.77"/><path class="cls-1" d="m273.96,152.81c-2.15-8.41-6.92-14.58-11.84-18.59-3.06,5.22-5.98,12.67-5.51,21.34.47,8.77,5.14,15.96,11.84,18.59,5.88-6.09,7.65-12.96,5.51-21.34"/><path class="cls-1" d="m339.02,117.89c8.84-4.97,14.36-12.22,17.41-18.99-6.82-1.88-16.12-2.92-25.77.23-9.76,3.19-16.46,10.64-17.41,19,8.65,4.79,16.94,4.73,25.77-.23"/><path class="cls-1" d="m405.89,68.99c8.84-4.97,14.36-12.22,17.41-19-6.82-1.88-16.13-2.91-25.76.23-9.76,3.19-16.46,10.64-17.41,19,8.66,4.79,16.95,4.73,25.77-.23"/><path class="cls-1" d="m420.12,23.06c7.14-7.21,10.44-15.71,11.5-23.06-7.07.07-16.3,1.64-24.7,7.33-8.5,5.76-12.89,14.77-11.51,23.06,9.64,2.22,17.6-.13,24.71-7.33"/><path class="cls-1" d="m321.4,151.67c8.28-5.87,13.01-13.67,15.34-20.71-6.98-1.16-16.34-1.22-25.61,2.92-9.37,4.19-15.25,12.3-15.33,20.71,9.11,3.86,17.35,2.92,25.6-2.92"/><path class="cls-1" d="m352.07,79.89c6.47-7.81,9.03-16.56,9.44-23.97-7.04.69-16.1,3.05-23.97,9.46-7.96,6.47-11.55,15.83-9.45,23.97,9.8,1.37,17.52-1.67,23.98-9.45"/><path class="cls-1" d="m302.36,52.86c1.65-10.01,6.58-17.68,11.89-22.86,4.11,5.77,8.26,14.15,8.59,24.29.34,10.26-4.37,19.1-11.89,22.86-7.47-6.49-10.24-14.31-8.6-24.29"/><path class="cls-1" d="m339.91,22.15c5.58-8.48,13.21-13.48,20.17-16.05,1.4,6.94,1.8,16.29-2.02,25.69-3.86,9.51-11.77,15.68-20.16,16.04-4.18-8.96-3.53-17.23,2.02-25.68"/><path class="cls-1" d="m287.27,91.69c-.12-10.15,3.41-18.56,7.74-24.58,5.04,4.97,10.59,12.5,12.69,22.43,2.12,10.04-.99,19.58-7.75,24.58-8.48-5.1-12.56-12.32-12.68-22.43"/><path class="cls-1" d="m273.34,128.34c.41-10.13,4.37-18.35,9.01-24.14,4.78,5.23,9.92,13.04,11.49,23.07,1.59,10.14-2.01,19.49-9.02,24.14-8.19-5.54-11.9-12.96-11.48-23.07"/><path class="cls-1" d="m272.26,205.9c2.63-4.06-4.25-7.75-2.42-10.58.74-1.14,2.21-.99,3.85.07,1.08.7,2.05,1.67,2.7,2.63l1.19-1.65c-.76-1.13-1.82-2-2.99-2.76-2.56-1.66-5.72-1.94-7.3.48-2.63,4.06,4.22,7.75,2.38,10.58-.92,1.42-2.81.68-4.15-.19-1.12-.73-2.22-1.7-2.99-2.82l-1.19,1.64c.64.94,1.67,1.89,2.81,2.63,2.84,1.83,6.29,2.75,8.11-.06"/><path class="cls-1" d="m255.06,191.58c-2.26,3.04-5.15,3.6-8.03,1.47-.5-.37-1.01-.77-1.45-1.21l7.01-9.48c.55.33,1.1.68,1.61,1.06,2.94,2.17,3.15,5.07.86,8.15m2.13,1.01c2.78-3.77,2.11-7.67-1.52-10.36-1.3-.97-2.66-1.86-3.85-2.5l-8.97,12.13c.77.79,1.78,1.7,2.78,2.44,4.06,3,8.26,2.77,11.57-1.71"/><path class="cls-1" d="m255.11,174.12c2.26,5.1,6.29,9.74,11.76,12.96,5.49,3.23,11.49,4.51,17.05,4.01-5.49-.34-11.15-1.99-16.41-5.09-5.27-3.1-9.44-7.25-12.41-11.88"/><path class="cls-1" d="m414.22,221.06c0-4.01-2.61-7.53-7.43-7.53s-7.53,3.51-7.53,7.53,2.61,7.53,7.22,7.53c4.92,0,7.74-3.41,7.74-7.53"/><path class="cls-1" d="m377.2,279.48c-2.48,1.69-5.26,2.68-8.24,2.68-4.27,0-7.85-1.88-7.85-6.16,0-6.15,5.96-7.45,11.72-7.45,1.49,0,2.88.1,4.37.2v10.72h0Zm14.9,9.14c-1.39-1.78-1.88-3.88-1.88-5.96v-26.31c0-12.51-8.34-19.27-21.46-19.27-6.45,0-12.11,1.49-16.49,3.97l.1,10.14c3.08-1.99,8.05-3.97,14.11-3.97s10.72,2.49,10.72,9.03v4.27c-1.78-.2-3.87-.3-5.66-.3-12.52,0-23.93,4.07-23.93,16.78,0,8.84,6.85,14.9,16.19,14.9,5.36,0,10.02-2.18,13.8-5.26h.1c.2,1.89,1.09,4.26,2.48,5.66l11.92-3.68Z"/><path class="cls-1" d="m283.3,290.61v-34.86c0-2.68-.1-5.46-1-8.05-2.38-7.25-9.63-10.62-17.18-10.62-5.66,0-10.23,1.99-14.6,5.26h-.1c-.2-1.99-.99-4.17-2.48-5.66l-12.01,3.67c1.39,1.79,1.88,3.78,1.88,5.96v44.29h13.11v-40.11c2.88-1.89,5.96-2.78,9.44-2.78,4.17,0,8.53,1.89,9.53,6.36.3,1.09.39,2.48.39,3.57v32.97s13.01,0,13.01,0Z"/><path class="cls-1" d="m340.49,290.61v-34.86c0-2.68-.1-5.46-.99-8.05-2.39-7.25-9.64-10.62-17.18-10.62-5.66,0-10.23,1.99-14.6,5.26h-.1c-.2-1.99-.99-4.17-2.49-5.66l-12.01,3.67c1.39,1.79,1.89,3.78,1.89,5.96v44.29h13.11v-40.11c2.88-1.89,5.96-2.78,9.43-2.78,4.17,0,8.53,1.89,9.53,6.36.31,1.09.39,2.48.39,3.57v32.97s13.01,0,13.01,0Z"/><path class="cls-1" d="m38.96,279.59h-18.6c-5.16,0-6.35-3.77-6.35-7.35v-51.74H0v53.63c0,9.43,2.98,16.48,15.79,16.48h22.18l.99-11.03Z"/><path class="cls-1" d="m72.66,279.48c-2.49,1.69-5.26,2.68-8.24,2.68-4.27,0-7.85-1.88-7.85-6.16,0-6.15,5.96-7.45,11.72-7.45,1.49,0,2.88.1,4.37.2v10.72h0Zm14.89,9.14c-1.4-1.78-1.89-3.88-1.89-5.96v-26.31c0-12.51-8.34-19.27-21.45-19.27-6.45,0-12.11,1.49-16.48,3.97l.1,10.14c3.08-1.99,8.04-3.97,14.1-3.97s10.72,2.49,10.72,9.03v4.27c-1.79-.2-3.87-.3-5.66-.3-12.51,0-23.93,4.07-23.93,16.78,0,8.84,6.86,14.9,16.19,14.9,5.36,0,10.02-2.18,13.8-5.26h.1c.2,1.89,1.1,4.26,2.49,5.66l11.91-3.68Z"/><path class="cls-1" d="m462.29,275.12c0-16.98-22.34-14.9-22.34-23.44,0-3.87,4.17-4.87,7.84-4.87,3.97,0,8.15.89,11.82,2.68l.4-9.93c-4.07-1.89-8.54-2.49-13.01-2.49-9.83,0-19.86,4.66-19.86,16.08,0,16.88,22.15,14.9,22.15,23.54,0,4.07-4.77,5.26-8.94,5.26s-9.13-.99-12.81-3.08l-.3,10.43c3.88,1.88,8.25,2.58,12.61,2.58,10.53,0,22.45-4.28,22.45-16.78"/><path class="cls-1" d="m421.18,281.27c-.8.3-2.09.5-3.18.5-3.47,0-5.06-2.29-5.06-6.26v-37.14h-13.01v36.84c0,9.63,3.58,16.19,14.4,16.19,2.28,0,4.47-.4,6.35-.8l.5-9.34Z"/><path class="cls-1" d="m176.95,290.61l-2.88-70.11h-16.38l-10.13,29.4c-1.99,5.66-3.88,12.11-5.56,17.97h-.1c-1.29-5.37-3.08-12.01-5.16-17.97l-10.13-29.4h-16.39l-3.08,70.11h12.31l.99-30.79c.2-5.96.3-13.8.1-19.76h.2c1.19,4.66,2.98,11.51,4.77,16.78l8.54,24.82h13.8l8.84-25.02c1.69-4.86,3.48-11.32,4.77-16.68h.2c0,5.36.3,13.9.4,19.96l.6,30.68s14.3,0,14.3,0Z"/><path class="cls-1" d="m217.06,255.92c0,.6,0,1.21-.1,1.91h-20.12c0-7.11,3.51-12.72,10.61-12.72,6.01,0,9.61,5.01,9.61,10.81m12.82,3.21c0-13.32-8.21-22.62-21.83-22.62-17.23,0-24.64,13.11-24.64,27.54,0,17.02,9.32,28.14,27.74,28.14,5.6,0,11.31-1.11,16.02-3.31l-.3-10.21c-3.1,1.9-7.81,3.41-12.12,3.41-11.21,0-17.92-5.31-17.92-15.82h32.54c.5-2.31.5-4.7.5-7.11"/></g></svg>